<?xml version="1.0" encoding="UTF-8" standalone="no"?>
<!-- Created with Inkscape (http://www.inkscape.org/) -->
<svg
   xmlns:svg="http://www.w3.org/2000/svg"
   xmlns="http://www.w3.org/2000/svg"
   version="1.0"
   width="1133.8583"
   height="376.29919"
   id="svg2">
  <defs
     id="defs4" />
  <g
     transform="translate(-2190.77,-43.268858)"
     id="layer1">
    <g
       transform="translate(35.433067,35.349896)"
       id="g3609">
      <path
         d="M 2312.5657,130.49475 C 2312.5657,126.69615 2309.4976,123.61087 2305.699,123.61087 L 2197.6453,123.61087 C 2193.8467,123.61087 2190.77,126.69615 2190.77,130.49475 L 2190.77,217.14914 C 2190.77,220.93914 2193.8467,224.02442 2197.6453,224.02442 L 2237.0579,224.02442 L 2305.699,224.02442 C 2309.4976,224.02442 2312.5657,220.93914 2312.5657,217.14914 L 2312.5657,194.02239 C 2312.5657,192.15747 2311.818,190.47303 2310.6148,189.24407 C 2311.818,187.99792 2312.5657,186.33067 2312.5657,184.46575 L 2312.5657,163.12658 C 2312.5657,161.27884 2311.818,159.61159 2310.632,158.37404 C 2311.818,157.13648 2312.5657,155.46923 2312.5657,153.6129 L 2312.5657,130.49475 z"
         id="path2946"
         style="fill:#ffffff;fill-opacity:1;fill-rule:nonzero;stroke:none" />
      <path
         d="M 2450.802,126.53373 C 2449.5387,124.55709 2447.3644,123.3625 2445.0096,123.3625 L 2403.6891,123.3625 C 2400.9132,123.3625 2398.4123,125.02117 2397.3381,127.59081 L 2381.1725,166.28148 L 2365.1875,127.77128 C 2364.1132,125.20164 2361.6124,123.52579 2358.8365,123.52579 L 2317.0863,123.52579 C 2314.7401,123.52579 2312.5572,124.72037 2311.3024,126.70561 C 2310.0305,128.67366 2309.8672,131.15736 2310.8556,133.2887 L 2351.0244,220.02903 C 2352.1502,222.45257 2354.5824,224.01669 2357.2551,224.01669 L 2404.9095,224.01669 C 2407.5994,224.01669 2410.0316,222.45257 2411.1574,220.02043 L 2451.2575,133.11682 C 2452.2372,130.99407 2452.0653,128.50178 2450.802,126.53373 z"
         id="path2950"
         style="fill:#ffffff;fill-opacity:1;fill-rule:nonzero;stroke:none" />
      <path
         d="M 2571.5225,214.01057 L 2527.1855,127.11555 C 2526.0081,124.81233 2523.6447,123.35992 2521.0579,123.35992 L 2473.4036,123.35992 C 2470.8167,123.35992 2468.462,124.80373 2467.276,127.09836 L 2422.6296,214.13089 C 2421.5381,216.26223 2421.6241,218.81468 2422.8702,220.85148 C 2424.125,222.89688 2426.3422,224.14302 2428.7486,224.14302 L 2469.8112,224.14302 C 2472.4324,224.14302 2474.813,222.66484 2475.9732,220.31865 L 2480.2187,211.75891 L 2514.2428,211.75891 L 2518.4023,220.18114 C 2519.5539,222.52733 2521.9517,224.01411 2524.5643,224.01411 L 2565.3949,224.01411 C 2567.7927,224.01411 2570.0099,222.76797 2571.2647,220.72257 C 2572.5108,218.68576 2572.614,216.14191 2571.5225,214.01057 z"
         id="path2954"
         style="fill:#ffffff;fill-opacity:1;fill-rule:nonzero;stroke:none" />
      <path
         d="M 2724.7477,214.01057 L 2680.3935,127.11555 C 2679.2161,124.81233 2676.8527,123.35992 2674.2659,123.35992 L 2626.603,123.35992 C 2624.0162,123.35992 2621.6614,124.80373 2620.484,127.09836 L 2575.8376,214.13089 C 2574.7376,216.26223 2574.8407,218.81468 2576.0782,220.85148 C 2577.3416,222.89688 2579.5503,224.14302 2581.9566,224.14302 L 2623.0107,224.14302 C 2625.6233,224.14302 2628.0038,222.66484 2629.1726,220.32724 L 2633.4267,211.75891 L 2667.4594,211.75891 L 2671.6189,220.18114 C 2672.7791,222.52733 2675.1597,224.01411 2677.7809,224.01411 L 2718.6287,224.01411 C 2721.0179,224.01411 2723.2437,222.76797 2724.4985,220.72257 C 2725.7446,218.68576 2725.8477,216.14191 2724.7477,214.01057 z"
         id="path2958"
         style="fill:#ffffff;fill-opacity:1;fill-rule:nonzero;stroke:none" />
      <path
         d="M 2772.6281,123.52923 L 2732.3389,123.52923 C 2728.5403,123.52923 2725.4636,126.59733 2725.4636,130.40452 L 2725.4636,217.13625 C 2725.4636,220.93485 2728.5403,224.01154 2732.3389,224.01154 L 2772.6281,224.01154 C 2776.4267,224.01154 2779.5034,220.93485 2779.5034,217.13625 L 2779.5034,130.40452 C 2779.5034,126.59733 2776.4267,123.52923 2772.6281,123.52923 z"
         id="path2962"
         style="fill:#ffffff;fill-opacity:1;fill-rule:nonzero;stroke:none" />
      <path
         d="M 2907.9174,178.53496 C 2911.8879,173.35271 2911.9566,166.88135 2911.9394,166.09069 C 2911.9394,166.20242 2911.9394,151.23148 2911.9394,151.23148 C 2911.9394,131.18143 2894.6653,124.39208 2885.5297,123.59283 C 2884.9368,123.56705 2792.2751,123.53267 2792.2751,123.53267 C 2790.4531,123.52408 2788.6999,124.25458 2787.4108,125.5351 C 2786.1217,126.82421 2785.3912,128.57741 2785.3912,130.39936 L 2785.3912,217.1311 C 2785.3912,220.93829 2788.4765,224.01498 2792.2665,224.01498 L 2832.59,224.01498 C 2836.3972,224.01498 2839.4653,220.93829 2839.4653,217.1311 L 2839.4653,194.09889 L 2857.9513,194.09889 L 2857.9513,217.1311 C 2857.9513,220.93829 2861.0279,224.01498 2864.8179,224.01498 L 2905.1157,224.01498 C 2908.9057,224.01498 2911.991,220.93829 2911.991,217.1311 L 2911.991,192.80977 C 2911.991,186.48451 2910.2808,181.88666 2907.9174,178.53496 M 2857.9513,192.9129 C 2857.9513,192.9215 2857.9513,192.94728 2857.9513,192.80977 L 2857.9513,192.9129 L 2857.9513,192.9129 z"
         id="path2966"
         style="fill:#ffffff;fill-opacity:1;fill-rule:nonzero;stroke:none" />
      <path
         d="M 2319.8596,327.32904 C 2318.8541,325.1977 2316.8345,323.72811 2314.5055,323.43591 C 2307.7161,322.5679 2301.8893,321.39911 2296.5094,319.85217 C 2298.5204,318.76931 2300.6002,317.63489 2302.8519,316.41452 L 2304.7598,315.37464 C 2306.5387,314.42069 2307.8107,312.72765 2308.2232,310.74241 C 2308.3005,310.36427 2308.1974,309.98613 2308.2146,309.60799 L 2310.1397,309.60799 C 2313.9469,309.60799 2317.0235,306.5313 2317.0235,302.7327 L 2317.0235,291.33692 C 2317.0235,287.53832 2313.9469,284.46163 2310.1397,284.46163 L 2305.9801,284.46163 L 2305.9801,277.99027 C 2305.9801,277.19102 2305.7739,276.45192 2305.5246,275.73002 C 2305.7739,275.01671 2305.9801,274.27761 2305.9801,273.47836 L 2305.9801,266.20775 C 2308.3263,265.1077 2309.9936,262.75291 2309.9936,259.99421 L 2309.9936,248.4781 C 2309.9936,244.6881 2306.9083,241.60282 2303.1183,241.60282 L 2215.9482,241.60282 C 2208.9097,241.60282 2205.7041,246.54443 2205.7041,251.13368 L 2205.7041,284.46163 L 2198.2874,284.46163 C 2194.4974,284.46163 2191.4293,287.53832 2191.4293,291.33692 L 2191.4293,302.7327 C 2191.4293,306.5313 2194.4974,309.60799 2198.2874,309.60799 L 2204.1915,309.60799 L 2204.1915,321.93194 L 2197.7889,321.93194 C 2195.838,321.93194 2193.9817,322.76557 2192.6668,324.22657 C 2191.3691,325.67897 2190.7503,327.61265 2190.9566,329.56351 L 2192.3402,342.1195 C 2192.727,345.66887 2195.7779,348.32445 2199.353,348.2471 C 2223.1501,347.63692 2243.183,345.7634 2258.8672,342.66093 C 2260.8525,342.2656 2262.5627,341.02805 2263.5424,339.26626 C 2264.5307,337.50446 2264.6854,335.39031 2263.9721,333.5082 L 2263.9377,333.41367 C 2269.3262,336.73959 2274.8437,339.70456 2280.6447,341.89605 C 2287.5114,344.11333 2295.5555,346.26186 2304.8629,348.3846 C 2307.6989,349.02916 2310.6467,347.82599 2312.1937,345.36807 L 2319.4471,333.93791 C 2320.7104,331.94408 2320.8565,329.45178 2319.8596,327.32904 M 2232.8443,309.60799 L 2236.703,309.60799 C 2239.5305,312.96829 2242.4181,316.21686 2245.4432,319.13886 C 2241.6102,319.84357 2237.3991,320.41938 2232.8443,320.85768 L 2232.8443,309.60799 z"
         id="path2970"
         style="fill:#ffffff;fill-opacity:1;fill-rule:nonzero;stroke:none" />
      <path
         d="M 2718.6631,322.31868 L 2675.4004,322.31868 L 2675.4004,319.58575 L 2712.5957,319.58575 C 2716.3857,319.58575 2719.4624,316.50906 2719.4624,312.71047 L 2719.4624,300.79044 C 2719.4624,296.99184 2716.3857,293.91515 2712.5957,293.91515 L 2610.1711,293.91515 C 2606.3811,293.91515 2603.3044,296.99184 2603.3044,300.79044 L 2603.3044,312.71047 C 2603.3044,316.50906 2606.3811,319.58575 2610.1711,319.58575 L 2646.464,319.58575 L 2646.464,322.31868 L 2604.499,322.31868 C 2600.6918,322.31868 2597.6237,325.39537 2597.6237,329.19397 L 2597.6237,341.8359 C 2597.6237,345.64309 2600.6918,348.71118 2604.499,348.71118 L 2718.6631,348.71118 C 2722.4617,348.71118 2725.547,345.64309 2725.547,341.8359 L 2725.547,329.19397 C 2725.547,325.39537 2722.4617,322.31868 2718.6631,322.31868 z"
         id="path2974"
         style="fill:#ffffff;fill-opacity:1;fill-rule:nonzero;stroke:none" />
      <path
         d="M 2715.6835,248.47982 L 2675.4459,248.47982 L 2675.4459,248.17043 C 2675.4459,244.36324 2672.3778,241.28655 2668.5878,241.28655 L 2653.3075,241.28655 C 2649.5175,241.28655 2646.4322,244.36324 2646.4322,248.17043 L 2646.4322,248.47982 L 2607.1657,248.47982 C 2601.7428,248.47982 2597.7809,252.11513 2597.5317,257.31456 C 2597.5145,257.65833 2597.5145,279.09203 2597.5145,279.09203 C 2597.5145,282.89063 2600.5912,285.95872 2604.3898,285.95872 L 2618.699,285.95872 C 2622.489,285.95872 2625.5829,282.89063 2625.5829,279.09203 L 2625.5829,274.04729 L 2697.2663,274.04729 L 2697.2663,279.09203 C 2697.2663,282.89063 2700.3516,285.95872 2704.1416,285.95872 L 2718.4508,285.95872 C 2722.2494,285.95872 2725.3261,282.89063 2725.3261,279.09203 L 2725.3261,257.65833 C 2725.0339,252.09794 2721.072,248.47982 2715.6835,248.47982 z"
         id="path2978"
         style="fill:#ffffff;fill-opacity:1;fill-rule:nonzero;stroke:none" />
      <path
         d="M 2663.959,269.60414 C 2662.7214,267.51577 2660.4784,266.23525 2658.0463,266.23525 L 2641.1245,266.23525 C 2638.8298,266.23525 2636.6899,267.37827 2635.418,269.27756 L 2630.7943,276.14426 C 2629.806,276.19582 2628.3966,276.19582 2627.8294,276.19582 L 2607.8996,276.19582 C 2606.0777,276.19582 2604.3245,276.92632 2603.0268,278.20684 C 2601.7377,279.49596 2601.0243,281.24916 2601.0243,283.07111 L 2601.0243,294.96535 C 2601.0243,298.76395 2604.0924,301.83204 2607.891,301.84064 L 2638.8814,301.90939 C 2646.3067,301.90939 2652.6577,297.8186 2656.2845,290.69408 C 2656.2071,290.85737 2664.0879,276.40208 2664.0879,276.40208 C 2665.2395,274.27933 2665.1966,271.69251 2663.959,269.60414 z"
         id="path2982"
         style="fill:#ffffff;fill-opacity:1;fill-rule:nonzero;stroke:none" />
      <path
         d="M 2714.6849,276.1666 L 2688.0088,276.1666 L 2688.0088,273.11569 C 2688.0088,269.3171 2684.9235,266.24041 2681.1249,266.24041 L 2664.5039,266.24041 C 2660.7139,266.24041 2657.6286,269.3171 2657.6286,273.11569 L 2657.6286,286.43656 C 2657.6286,291.02581 2659.3217,301.69969 2675.0145,301.90595 C 2675.109,301.90595 2714.6849,301.90595 2714.6849,301.90595 C 2718.4749,301.90595 2721.5602,298.83786 2721.5602,295.03067 L 2721.5602,283.04189 C 2721.5602,279.2347 2718.4749,276.1666 2714.6849,276.1666 z"
         id="path2986"
         style="fill:#ffffff;fill-opacity:1;fill-rule:nonzero;stroke:none" />
      <path
         d="M 2449.451,250.36795 C 2448.6432,248.74366 2447.1993,247.49752 2445.4719,246.92171 L 2433.6808,242.99421 C 2430.0885,241.79962 2426.2039,243.7333 2424.9922,247.32564 C 2423.8749,250.65156 2421.5545,255.1033 2418.0997,260.55197 C 2416.9911,262.31376 2416.716,264.47947 2417.395,266.43893 C 2418.0653,268.41558 2419.5779,269.97111 2421.5373,270.68442 L 2433.2081,274.97288 C 2436.2247,276.07293 2439.6022,274.95569 2441.3468,272.26574 C 2445.3258,266.15533 2448.1791,260.56056 2449.8205,255.62754 C 2450.4049,253.89153 2450.276,252.00083 2449.451,250.36795 z"
         id="path2990"
         style="fill:#ffffff;fill-opacity:1;fill-rule:nonzero;stroke:none" />
      <path
         d="M 2413.2191,263.31755 C 2411.2081,256.3907 2408.8791,250.79594 2406.1118,246.20668 C 2404.5047,243.5597 2401.342,242.31355 2398.3599,243.14718 L 2388.6915,245.87151 L 2379.9771,243.09561 C 2376.4019,241.96119 2372.5776,243.88627 2371.3744,247.43564 C 2370.2056,250.88188 2367.911,255.45394 2364.5163,261.04011 C 2363.4592,262.79331 2363.2358,264.93324 2363.9061,266.87551 C 2364.585,268.80918 2366.0976,270.33894 2368.0141,271.05225 L 2379.6763,275.3493 C 2382.7358,276.48372 2386.1734,275.30633 2387.8923,272.53043 C 2388.1157,272.16948 2388.2618,271.86869 2388.4681,271.50773 C 2389.9634,274.09456 2392.9026,275.55556 2395.9106,274.84225 L 2408.2001,271.92885 C 2410.0393,271.49055 2411.6034,270.32175 2412.5574,268.69746 C 2413.5027,267.07318 2413.7433,265.13091 2413.2191,263.31755 z"
         id="path2994"
         style="fill:#ffffff;fill-opacity:1;fill-rule:nonzero;stroke:none" />
      <path
         d="M 2359.1037,262.57072 C 2356.4997,255.98763 2353.5519,250.37568 2350.3549,245.88956 C 2348.5673,243.38008 2345.3273,242.35738 2342.4311,243.41445 L 2330.7689,247.60838 C 2328.7493,248.33028 2327.1852,249.95457 2326.5406,252.00856 C 2325.8961,254.05396 2326.2484,256.28843 2327.4774,258.04163 C 2329.6001,261.04956 2331.9119,265.58725 2334.3269,271.5 C 2335.6762,274.81732 2339.3544,276.53615 2342.7749,275.45329 L 2354.7895,271.66329 C 2356.6114,271.07889 2358.1068,269.77258 2358.9232,268.05376 C 2359.7397,266.33494 2359.817,264.34111 2359.1037,262.57072 z"
         id="path2998"
         style="fill:#ffffff;fill-opacity:1;fill-rule:nonzero;stroke:none" />
      <path
         d="M 2447.2689,315.20963 C 2451.0675,315.20963 2454.1442,312.13294 2454.1442,308.33434 L 2454.1442,286.90064 C 2454.0153,284.63179 2453.1645,282.80125 2451.9699,281.30588 C 2452.3136,280.2488 2452.4683,279.14016 2452.2793,278.01433 C 2451.9527,276.0119 2450.7409,274.2673 2448.9963,273.23601 C 2442.4562,269.37725 2435.7098,265.86226 2428.9205,262.57931 C 2428.972,262.02929 2429.1783,261.40192 2429.1955,260.86909 C 2429.2041,260.53392 2429.2041,248.48498 2429.2041,248.48498 C 2429.2041,244.69498 2426.1274,241.61829 2422.3374,241.61829 L 2408.6985,241.61829 C 2404.8999,241.61829 2401.8233,244.69498 2401.8233,248.48498 L 2401.8233,260.53392 C 2401.8233,261.49646 2401.8233,264.43564 2395.3777,267.73578 C 2393.6159,268.66394 2391.3642,269.48898 2388.468,270.27104 C 2388.3649,270.29682 2388.2961,270.39995 2388.1844,270.43433 C 2384.0936,267.8475 2379.9341,265.41537 2375.7315,263.10356 C 2375.9722,261.68553 2376.1784,260.27609 2376.1784,258.88385 L 2376.1784,248.48498 C 2376.1784,244.69498 2373.0932,241.61829 2369.3032,241.61829 L 2355.6815,241.61829 C 2351.8743,241.61829 2348.8062,244.69498 2348.8062,248.48498 L 2348.8062,258.88385 C 2348.8062,260.32766 2348.4538,262.25274 2345.7037,264.38408 C 2342.5411,267.04825 2337.694,269.18818 2331.4461,270.71793 C 2329.203,271.28515 2327.3725,272.93521 2326.6076,275.12671 C 2325.8428,277.31821 2326.2295,279.75034 2327.6475,281.58948 L 2327.7421,281.71839 C 2326.7709,283.08486 2326.049,284.64039 2325.9459,286.5225 C 2325.9373,286.90064 2325.9373,308.33434 2325.9373,308.33434 C 2325.9373,312.13294 2329.014,315.20963 2332.8126,315.20963 L 2345.5576,315.20963 C 2345.6522,315.43308 2345.8412,315.59636 2345.9616,315.81122 C 2341.57,316.86829 2337.0753,317.82224 2332.3829,318.54414 C 2330.1656,318.88791 2328.2491,320.28875 2327.2608,322.29117 C 2326.2639,324.31079 2326.3154,326.67417 2327.3983,328.64222 L 2333.6032,339.96066 C 2335.0041,342.50452 2337.8315,343.89676 2340.6934,343.44987 C 2351.5993,341.74823 2363.2959,338.02699 2376.1097,332.33769 L 2376.1097,341.77402 C 2376.1097,345.57261 2379.1778,348.6579 2382.985,348.6579 L 2397.2684,348.6579 C 2401.067,348.6579 2404.1351,345.57261 2404.1351,341.77402 L 2404.1351,332.81036 C 2412.8065,336.62615 2423.4632,340.15832 2436.8786,343.64753 C 2439.5772,344.34366 2442.4304,343.33814 2444.1063,341.12086 L 2452.2707,330.23213 C 2453.6887,328.33283 2454.0325,325.84054 2453.1816,323.63186 C 2452.3394,321.43176 2450.4143,319.80748 2448.0853,319.35199 C 2442.8,318.3207 2438.0732,317.28081 2433.7676,316.21514 C 2433.9824,315.87138 2434.2746,315.58777 2434.4465,315.20963 L 2447.2689,315.20963 z"
         id="path3002"
         style="fill:#ffffff;fill-opacity:1;fill-rule:nonzero;stroke:none" />
      <path
         d="M 2583.2715,320.40477 C 2582.7129,320.40477 2582.2488,320.40477 2581.7847,320.40477 L 2581.7847,278.14754 C 2581.7847,277.9155 2581.7589,277.15063 2581.7589,277.15063 C 2581.7589,274.96772 2580.8222,272.69028 2579.112,270.98006 C 2577.4017,269.27842 2575.1415,268.33307 2572.7265,268.33307 L 2536.2875,268.33307 C 2531.3115,268.33307 2527.2551,272.38949 2527.2551,277.38267 C 2527.2551,277.38267 2527.2809,308.93164 2527.2895,320.40477 C 2526.7824,320.40477 2526.4129,320.40477 2525.7683,320.40477 C 2521.9611,320.40477 2518.8844,323.47287 2518.8844,327.28006 L 2518.8844,341.76972 C 2518.8844,345.49956 2521.858,348.54188 2525.5707,348.64501 C 2527.4871,348.70517 2537.2586,348.91143 2541.8737,347.84576 C 2545.6121,347.26995 2551.8944,343.5487 2554.4297,334.29285 C 2556.7329,342.76664 2562.955,346.7629 2566.9685,347.80279 C 2571.721,348.91143 2581.5441,348.70517 2583.4606,348.64501 C 2587.1904,348.54188 2590.1468,345.49956 2590.1468,341.76972 L 2590.1468,327.28006 C 2590.1468,323.47287 2587.0615,320.40477 2583.2715,320.40477 z"
         id="path3006"
         style="fill:#ffffff;fill-opacity:1;fill-rule:nonzero;stroke:none" />
      <path
         d="M 2583.2801,250.82086 L 2569.0139,250.82086 L 2569.0139,248.30279 C 2569.0139,244.51278 2565.9286,241.4275 2562.1386,241.4275 L 2547.2278,241.4275 C 2543.4206,241.4275 2540.3439,244.51278 2540.3439,248.30279 L 2540.3439,250.82086 L 2525.4332,250.82086 C 2521.6346,250.82086 2518.5579,253.89755 2518.5579,257.69615 L 2518.5579,269.62477 C 2518.5579,273.42336 2521.6346,276.50005 2525.4332,276.50005 L 2583.2801,276.50005 C 2587.0787,276.50005 2590.164,273.42336 2590.164,269.62477 L 2590.164,257.69615 C 2590.164,253.89755 2587.0787,250.82086 2583.2801,250.82086 z"
         id="path3010"
         style="fill:#ffffff;fill-opacity:1;fill-rule:nonzero;stroke:none" />
      <path
         d="M 2533.8726,283.8377 C 2533.4601,280.98446 2531.3373,278.83593 2528.6818,278.19137 L 2528.6818,257.82334 C 2528.6818,254.78102 2527.7364,252.31451 2525.8973,250.46678 C 2523.0698,247.64791 2519.3829,247.64791 2518.1712,247.64791 L 2513.0835,247.64791 C 2512.9459,247.2268 2512.9202,246.77991 2512.7053,246.39317 C 2511.7943,244.70873 2510.213,243.51415 2508.3481,243.04147 L 2494.46,239.5007 C 2490.8075,238.56394 2487.1121,240.72966 2486.1151,244.35637 C 2485.8659,245.28453 2485.4878,246.39317 2484.9893,247.64791 L 2478.8531,247.64791 C 2472.631,247.64791 2468.4628,251.83324 2468.4628,258.06397 L 2468.4628,283.15017 L 2467.1136,283.27049 C 2465.1369,283.44237 2463.3322,284.46507 2462.1548,286.08076 C 2461.0032,287.67927 2460.582,289.72466 2461.0289,291.65834 L 2463.6587,303.02834 C 2464.1916,305.34016 2465.876,307.05898 2467.9644,307.84964 C 2467.2081,318.31726 2465.283,327.8825 2462.0516,336.24457 C 2461.3125,338.15246 2461.4586,340.29239 2462.4556,342.07997 C 2463.4697,343.86754 2465.2143,345.12228 2467.2339,345.49183 L 2482.6173,348.28491 C 2485.7026,348.83494 2488.6418,347.19346 2489.9653,344.44335 C 2491.031,346.7036 2493.2225,348.3021 2495.8179,348.42242 C 2509.6802,349.0412 2512.3787,348.85212 2513.2639,348.80056 C 2516.6586,348.38804 2519.6322,347.17627 2522.7003,345.06212 C 2524.0238,344.14255 2524.9863,342.99094 2525.6394,342.12294 C 2526.7825,340.96273 2528.4669,338.59935 2528.6732,330.57246 C 2528.6818,330.44355 2528.6818,312.85141 2528.6818,303.14866 L 2529.3005,303.0971 C 2531.1826,302.93381 2532.9101,301.99705 2534.0789,300.51886 C 2535.2563,299.04927 2535.7719,297.14997 2535.4969,295.27646 L 2533.8726,283.8377 M 2528.656,296.78902 C 2528.656,296.59995 2528.5443,296.44526 2528.5271,296.25619 L 2528.5872,296.25619 C 2528.5958,296.43666 2528.656,296.60854 2528.656,296.78902 z"
         id="path3014"
         style="fill:#ffffff;fill-opacity:1;fill-rule:nonzero;stroke:none" />
      <path
         d="M 3252.4964,46.165072 C 3251.2073,44.351715 3249.1103,43.268858 3246.893,43.268858 L 3227.943,43.268858 C 3225.0124,43.268858 3222.3998,45.125185 3221.4459,47.883894 L 3119.9065,339.32727 C 3119.1674,341.42424 3119.494,343.76183 3120.7917,345.57519 C 3122.0808,347.38855 3124.1692,348.4714 3126.3951,348.4714 L 3145.3451,348.4714 C 3148.2757,348.4714 3150.8797,346.61508 3151.8336,343.85637 L 3253.3816,52.412988 C 3254.1121,50.298838 3253.7769,47.978429 3252.4964,46.165072 z"
         id="path3018"
         style="fill:#ffffff;fill-opacity:1;fill-rule:nonzero;stroke:none" />
      <path
         d="M 3223.0968,46.199449 C 3221.8077,44.386092 3219.7193,43.303235 3217.502,43.303235 L 3077.8908,43.303235 C 3075.7766,43.303235 3073.7742,44.274369 3072.4765,45.95022 L 2844.4404,337.3936 C 2842.8161,339.46478 2842.5239,342.27505 2843.6755,344.64703 C 2844.8271,347.00181 2847.2335,348.50578 2849.8547,348.50578 L 2856.0768,348.50578 L 3115.9627,348.50578 C 3118.8932,348.50578 3121.5059,346.65805 3122.4598,343.89075 L 3223.9906,52.447365 C 3224.7125,50.333215 3224.3859,48.012806 3223.0968,46.199449 z"
         id="path3022"
         style="fill:#ffffff;fill-opacity:1;fill-rule:nonzero;stroke:none" />
      <path
         d="M 2305.9276,153.94464 L 2305.9276,130.8179 L 2197.8739,130.8179 L 2197.8739,217.48088 L 2237.2865,217.48088 L 2305.9276,217.48088 L 2305.9276,194.33695 L 2237.2865,194.33695 L 2237.2865,184.79749 L 2305.9276,184.79749 L 2305.9276,163.44972 L 2237.2865,163.44972 L 2237.2865,153.94464 L 2305.9276,153.94464 z"
         id="path3026"
         style="fill:#008240;fill-opacity:1;fill-rule:nonzero;stroke:none" />
      <path
         d="M 2317.3166,130.73023 L 2359.0582,130.73023 L 2381.3857,184.48637 L 2403.9108,130.55835 L 2445.2399,130.55835 L 2405.1484,217.46196 L 2357.4941,217.46196 L 2317.3166,130.73023 z"
         id="path3030"
         style="fill:#008240;fill-opacity:1;fill-rule:nonzero;stroke:none" />
      <path
         d="M 2524.7921,217.46025 L 2565.6313,217.46025 L 2521.2857,130.56523 L 2473.6314,130.56523 L 2428.9764,217.59776 L 2470.039,217.59776 L 2476.1924,205.21365 L 2518.7504,205.21365 L 2524.7921,217.46025 M 2487.0382,183.33305 L 2497.523,162.15717 L 2507.9648,183.33305 L 2487.0382,183.33305 z"
         id="path3034"
         style="fill:#008240;fill-opacity:1;fill-rule:nonzero;stroke:none" />
      <path
         d="M 2678.0087,217.46025 L 2718.8651,217.46025 L 2674.5023,130.56523 L 2626.8308,130.56523 L 2582.1844,217.59776 L 2623.247,217.59776 L 2629.3918,205.21365 L 2671.967,205.21365 L 2678.0087,217.46025 M 2640.2376,183.33305 L 2650.731,162.15717 L 2661.1728,183.33305 L 2640.2376,183.33305 z"
         id="path3038"
         style="fill:#008240;fill-opacity:1;fill-rule:nonzero;stroke:none" />
      <path
         d="M 2732.5692,130.73023 L 2772.8584,130.73023 L 2772.8584,217.46196 L 2732.5692,217.46196 L 2732.5692,130.73023 z"
         id="path3042"
         style="fill:#008240;fill-opacity:1;fill-rule:nonzero;stroke:none" />
      <path
         d="M 2895.211,178.11556 C 2905.4896,178.11556 2905.2919,166.5307 2905.2919,166.5307 L 2905.2919,151.55977 C 2905.2919,132.51522 2885.1645,130.77062 2885.1645,130.77062 L 2792.4942,130.72765 L 2792.4942,217.45939 L 2832.8178,217.45939 L 2832.8178,187.55189 L 2859.5712,187.55189 C 2865.1574,187.55189 2865.0457,193.13806 2865.0457,193.13806 L 2865.0457,217.45939 L 2905.3435,217.45939 L 2905.3435,193.13806 C 2905.3263,179.12966 2895.211,178.11556 2895.211,178.11556 M 2860.4908,165.20721 L 2832.3623,165.20721 L 2832.3623,152.60825 L 2860.4908,152.60825 C 2863.9628,152.60825 2866.7903,155.42712 2866.7903,158.90773 C 2866.7903,162.37975 2863.9628,165.20721 2860.4908,165.20721 z"
         id="path3046"
         style="fill:#008240;fill-opacity:1;fill-rule:nonzero;stroke:none" />
      <path
         d="M 2301.7225,309.66213 L 2296.5746,303.05326 L 2310.3682,303.05326 L 2310.3682,291.66607 L 2227.71,291.66607 L 2227.71,287.12838 L 2299.3333,287.12838 L 2299.3333,278.31942 L 2227.71,278.31942 L 2227.71,273.79892 L 2299.3333,273.79892 L 2299.3333,264.84386 L 2227.71,264.84386 L 2227.71,261.60388 C 2227.71,260.75306 2228.2515,260.32336 2229.3257,260.32336 L 2303.3382,260.32336 L 2303.3382,248.80725 L 2216.1853,248.80725 C 2213.9251,248.80725 2212.8079,249.67526 2212.8079,251.45424 L 2212.8079,291.66607 L 2198.5245,291.66607 L 2198.5245,303.05326 L 2211.3039,303.05326 L 2211.3039,329.13638 C 2207.2045,329.13638 2202.7957,329.13638 2198.026,329.13638 L 2199.4011,341.70096 C 2222.9489,341.09078 2242.3974,339.27743 2257.7722,336.24371 L 2253.5096,324.84792 C 2245.9811,326.69565 2236.8886,327.95899 2226.2061,328.62933 L 2226.2061,303.05326 L 2239.9738,303.05326 C 2252.4955,318.71173 2266.9421,329.62624 2283.2967,335.78822 C 2289.5618,337.79924 2297.3395,339.8962 2306.6211,342.01035 L 2313.866,330.58019 C 2298.8177,328.6637 2288.9431,325.44951 2280.1599,321.2298 C 2286.0211,318.17889 2293.0253,314.3803 2301.7225,309.66213 M 2257.3941,303.05326 L 2287.9461,303.05326 C 2281.4318,306.80029 2274.7456,310.25512 2267.9047,313.46932 C 2263.2639,309.7051 2260.1528,306.1987 2257.3941,303.05326 z"
         id="path3050"
         style="fill:#008240;fill-opacity:1;fill-rule:nonzero;stroke:none" />
      <path
         d="M 2668.7511,313.03618 L 2712.8217,313.03618 L 2712.8217,301.11615 L 2610.4057,301.11615 L 2610.4057,313.03618 L 2653.5567,313.03618 L 2653.5567,329.51968 L 2604.725,329.51968 L 2604.725,342.17021 L 2718.8977,342.17021 L 2718.8977,329.51968 L 2668.7511,329.51968 L 2668.7511,313.03618 z"
         id="path3054"
         style="fill:#008240;fill-opacity:1;fill-rule:nonzero;stroke:none" />
      <path
         d="M 2618.9242,268.74816 C 2618.9242,267.89734 2619.4227,267.49342 2620.3766,267.49342 L 2702.923,267.49342 C 2703.9027,267.49342 2704.3668,267.89734 2704.3668,268.74816 L 2704.3668,279.41345 L 2718.676,279.41345 L 2718.676,257.97974 C 2718.6073,256.45859 2717.6877,255.67652 2715.9173,255.67652 L 2668.813,255.67652 L 2668.813,248.50044 L 2653.5413,248.50044 L 2653.5413,255.67652 L 2607.3909,255.67652 C 2605.6205,255.67652 2604.701,256.45859 2604.6236,257.97974 L 2604.6236,279.41345 L 2618.9242,279.41345 L 2618.9242,268.74816 z"
         id="path3058"
         style="fill:#008240;fill-opacity:1;fill-rule:nonzero;stroke:none" />
      <path
         d="M 2628.0554,283.39338 L 2608.1257,283.39338 L 2608.1343,295.29622 L 2639.1246,295.36497 C 2644.1779,295.36497 2648.0367,292.52032 2650.4001,287.8881 L 2658.2809,273.4414 L 2641.3505,273.4414 L 2636.2456,281.02141 C 2634.7932,283.18712 2633.6072,283.39338 2628.0554,283.39338 z"
         id="path3062"
         style="fill:#008240;fill-opacity:1;fill-rule:nonzero;stroke:none" />
      <path
         d="M 2664.7316,273.43969 L 2664.7316,286.76915 C 2664.7316,292.88816 2668.2638,295.26872 2675.3281,295.36326 L 2714.9126,295.36326 L 2714.9126,283.36588 L 2684.0597,283.36588 C 2682.255,283.36588 2681.3526,282.57523 2681.3526,280.96813 L 2681.3526,273.43969 L 2664.7316,273.43969 z"
         id="path3066"
         style="fill:#008240;fill-opacity:1;fill-rule:nonzero;stroke:none" />
      <path
         d="M 2443.5339,253.76692 L 2431.7428,249.84801 C 2430.4365,253.72395 2427.9012,258.614 2424.1284,264.56112 L 2435.8164,268.84958 C 2439.4861,263.20325 2442.0643,258.1671 2443.5339,253.76692 z"
         id="path3070"
         style="fill:#008240;fill-opacity:1;fill-rule:nonzero;stroke:none" />
      <path
         d="M 2389.4014,255.40323 C 2391.1288,258.61743 2392.8476,262.96604 2394.5665,268.47487 L 2406.8474,265.57006 C 2405.0255,259.28777 2402.9027,254.14849 2400.4534,250.09207 L 2388.7998,253.37502 L 2378.1173,249.97175 C 2376.8024,253.8477 2374.3187,258.84087 2370.6233,264.9255 L 2382.2855,269.22256 C 2385.4825,264.08328 2387.8631,259.46824 2389.4014,255.40323 z"
         id="path3074"
         style="fill:#008240;fill-opacity:1;fill-rule:nonzero;stroke:none" />
      <path
         d="M 2352.9434,265.42396 C 2350.5027,259.2448 2347.8385,254.20006 2344.9853,250.2038 L 2333.3316,254.39772 C 2335.781,257.86974 2338.299,262.80276 2340.9288,269.22256 L 2352.9434,265.42396 z"
         id="path3078"
         style="fill:#008240;fill-opacity:1;fill-rule:nonzero;stroke:none" />
      <path
         d="M 2447.5035,308.6635 L 2447.5035,287.2298 C 2447.409,285.70864 2446.4808,284.95236 2444.7362,284.95236 L 2441.0923,284.95236 L 2445.7417,279.47791 C 2437.8867,274.85428 2429.8168,270.63457 2421.5665,266.84457 C 2422.1251,264.71323 2422.4775,262.71081 2422.5634,260.85448 L 2422.5634,248.81413 L 2408.9331,248.81413 L 2408.9331,260.85448 C 2408.9331,266.26877 2405.5127,270.71192 2398.7405,274.17535 C 2396.4545,275.38711 2393.7044,276.35825 2390.5074,277.23485 L 2397.228,284.95236 L 2381.1656,284.95236 L 2387.4565,278.24036 C 2381.071,274.098 2374.5653,270.29081 2367.9307,266.84457 C 2368.9963,264.22337 2369.5292,261.67951 2369.5292,259.213 L 2369.5292,248.81413 L 2355.9075,248.81413 L 2355.9075,259.213 C 2355.9075,263.52725 2353.9652,267.17974 2350.1409,270.1533 C 2346.3766,273.34172 2340.7647,275.89417 2333.3308,277.72471 L 2338.8826,284.95236 L 2335.8145,284.95236 C 2334.0441,284.95236 2333.1245,285.70864 2333.0386,287.2298 L 2333.0386,308.6635 L 2347.4337,308.6635 L 2347.4337,298.00681 C 2347.4337,297.15599 2347.9236,296.75207 2348.8861,296.75207 L 2383.211,296.75207 L 2383.211,301.82259 L 2352.1175,301.82259 L 2352.1175,312.85742 L 2376.1294,312.85742 C 2363.7625,318.92486 2349.6252,323.21332 2333.6488,325.67124 L 2339.8623,336.98108 C 2352.9425,334.94428 2367.0884,329.97689 2383.211,321.86405 L 2383.211,342.10317 L 2397.4944,342.10317 L 2397.4944,321.99296 C 2408.1081,328.23228 2422.2196,333.00201 2438.832,337.31626 L 2446.9964,326.42752 C 2429.3184,322.97269 2414.7084,319.0194 2404.2236,312.85742 L 2428.3386,312.85742 L 2428.3386,301.82259 L 2397.4944,301.82259 L 2397.4944,296.75207 L 2431.7333,296.75207 C 2432.6959,296.75207 2433.1771,297.15599 2433.1771,298.00681 L 2433.1771,308.6635 L 2447.5035,308.6635 M 2410.4027,281.01626 C 2412.5942,279.47791 2414.6053,277.77628 2416.4014,275.86839 C 2421.9704,278.96226 2426.9894,282.00458 2431.4927,284.95236 L 2402.9173,284.95236 C 2405.7791,283.7234 2408.28,282.39131 2410.4027,281.01626 M 2362.1554,275.7051 C 2367.1572,278.85913 2371.6003,281.93583 2375.5794,284.95236 L 2347.4337,284.95236 C 2352.9941,282.48585 2357.9357,279.40916 2362.1554,275.7051 z"
         id="path3082"
         style="fill:#008240;fill-opacity:1;fill-rule:nonzero;stroke:none" />
      <path
         d="M 2578.1606,327.63929 C 2575.78,327.63929 2575.3761,326.22986 2575.1355,325.12981 L 2575.1355,278.4724 L 2575.1183,277.69893 C 2575.1183,276.51294 2574.1472,275.53322 2572.9612,275.53322 L 2536.5221,275.53322 C 2535.3276,275.53322 2534.365,276.51294 2534.365,277.69893 L 2534.3994,324.86339 C 2534.2877,326.10094 2533.7119,327.69085 2531.5805,327.63929 C 2531.5805,327.63929 2531.1766,327.60491 2526.003,327.60491 L 2526.003,342.10317 C 2526.003,342.10317 2536.5651,342.40397 2540.5442,341.4758 C 2540.5442,341.4758 2548.7516,340.1695 2548.932,326.36736 L 2548.932,326.38455 L 2548.932,288.73376 C 2548.9492,287.89154 2549.4219,287.47902 2550.3501,287.47043 L 2559.1504,287.47043 C 2560.0356,287.47902 2560.4825,287.87435 2560.5255,288.62204 L 2560.5255,327.81977 L 2560.5599,327.9229 C 2560.6888,339.34446 2568.9133,341.4758 2568.9133,341.4758 C 2572.8838,342.40397 2583.5061,342.10317 2583.5061,342.10317 L 2583.5061,327.60491 C 2578.3153,327.60491 2578.1606,327.63929 2578.1606,327.63929 z"
         id="path3086"
         style="fill:#008240;fill-opacity:1;fill-rule:nonzero;stroke:none" />
      <path
         d="M 2562.3655,248.63022 L 2547.4547,248.63022 L 2547.4547,258.02358 L 2525.6601,258.02358 L 2525.6601,269.94361 L 2583.5156,269.94361 L 2583.5156,258.02358 L 2562.3655,258.02358 L 2562.3655,248.63022 z"
         id="path3090"
         style="fill:#008240;fill-opacity:1;fill-rule:nonzero;stroke:none" />
      <path
         d="M 2528.9293,296.5776 L 2527.2964,285.13884 L 2522.0282,285.6459 L 2522.0282,258.14475 C 2522.0282,255.60949 2520.8766,254.85321 2518.4015,254.85321 L 2505.2525,254.85321 C 2505.8283,253.14298 2506.3784,251.57026 2506.8854,250.03191 L 2492.9887,246.48255 C 2492.3872,248.67404 2491.3043,251.46713 2489.723,254.85321 L 2479.0749,254.85321 C 2476.5826,254.85321 2475.5685,255.99622 2475.5685,258.39398 L 2475.5685,289.76247 L 2467.9541,290.43281 L 2470.5839,301.80282 L 2475.4482,301.37311 L 2475.4482,301.37311 C 2475.1903,315.51042 2472.9387,328.04922 2468.6846,339.04109 L 2484.0767,341.84277 C 2487.9354,330.4212 2489.8863,318.4582 2489.9636,305.95377 L 2489.9636,300.084 L 2493.0661,299.7918 L 2493.0661,325.35067 L 2504.5392,325.35067 L 2504.5392,298.7605 L 2507.6417,298.48549 L 2507.6417,329.45006 C 2507.6417,330.03446 2507.2206,330.48135 2506.3784,330.72199 C 2505.3041,330.97122 2501.1961,330.50714 2494.106,329.32115 L 2496.3576,341.87714 C 2505.4502,342.28106 2511.0106,342.40138 2513.013,342.26388 C 2515.11,342.00605 2517.0522,341.08648 2519.0289,339.72861 C 2519.8797,339.13562 2520.7821,337.80353 2520.7821,337.80353 C 2521.8821,336.77224 2522.0282,330.72199 2522.0282,330.72199 L 2522.0282,297.19638 L 2521.9939,297.17919 L 2528.9293,296.5776 M 2507.6417,286.90923 L 2489.9636,288.49914 L 2489.9636,274.87748 C 2493.4872,279.93941 2495.9967,283.76379 2497.4835,286.30764 L 2507.6417,283.0075 L 2507.6417,286.90923 M 2507.6417,279.56986 C 2506.5502,277.98855 2505.433,276.26972 2504.2642,274.49934 C 2502.1587,271.52578 2500.6977,269.48897 2499.8554,268.29439 L 2489.9636,272.23049 L 2489.9636,267.60686 C 2489.9808,266.81621 2490.4449,266.3865 2491.3816,266.36931 L 2506.2151,266.36931 C 2507.1604,266.3865 2507.6331,266.81621 2507.6417,267.62405 L 2507.6417,279.56986 z"
         id="path3094"
         style="fill:#008240;fill-opacity:1;fill-rule:nonzero;stroke:none" />
      <path
         d="M 3050.1989,94.25598 L 2942.5749,231.79608 C 2957.4513,271.89619 2995.2911,298.49495 3038.5195,298.49495 C 3095.0172,298.49495 3140.9785,252.52507 3140.9785,196.036 C 3140.9785,143.74085 3101.5401,100.07419 3050.1989,94.25598 z"
         id="path3098"
         style="fill:#ffffff;fill-opacity:1;fill-rule:nonzero;stroke:none" />
      <path
         d="M 3228.1656,50.47072 L 3126.6262,341.9141 L 3145.5762,341.9141 L 3247.1156,50.47072 L 3228.1656,50.47072 z"
         id="path3102"
         style="fill:#ff6600;fill-opacity:1;fill-rule:nonzero;stroke:none" />
      <path
         d="M 3078.3145,124.40239 C 3086.6594,133.8731 3093.337,144.74464 3097.9692,156.45841 C 3105.8071,153.58798 3113.43,150.14174 3120.8467,146.14548 C 3112.7597,132.89337 3101.5959,121.69525 3088.2493,113.62538 C 3085.3445,117.66461 3082.0186,121.23976 3078.3145,124.40239 z"
         id="path3106"
         style="fill:#ffffff;fill-opacity:1;fill-rule:nonzero;stroke:none" />
      <path
         d="M 3105.5234,194.38851 L 3134.7606,194.38851 C 3134.4684,177.99095 3130.0596,162.46999 3122.4968,148.96865 C 3114.9769,153.03366 3107.1649,156.60022 3099.1552,159.5394 C 3103.1342,170.54846 3105.3515,182.33098 3105.5234,194.38851 z"
         id="path3110"
         style="fill:#ffffff;fill-opacity:1;fill-rule:nonzero;stroke:none" />
      <path
         d="M 3078.4236,267.86641 C 3082.0245,270.9431 3085.3419,274.50966 3088.1521,278.45435 C 3101.5074,270.40167 3112.7571,259.17777 3120.8785,245.83971 C 3113.5649,241.87783 3105.9935,238.47456 3098.2244,235.58694 C 3093.5922,247.48119 3086.8544,258.36133 3078.4236,267.86641 z"
         id="path3114"
         style="fill:#ffffff;fill-opacity:1;fill-rule:nonzero;stroke:none" />
      <path
         d="M 2980.8925,231.41708 C 2989.0053,228.58102 2997.3244,226.34656 3005.824,224.74805 C 3004.2341,215.88753 3003.3833,206.86371 3003.3145,197.67661"
         id="path3118"
         style="fill:#ffffff;fill-opacity:1;fill-rule:nonzero;stroke:none" />
      <path
         d="M 3076.2579,270.31745 C 3068.1021,278.91156 3058.4853,286.18217 3047.6653,291.8285 C 3061.2268,290.55657 3073.9461,286.4314 3085.3419,280.09754 C 3082.6433,276.45364 3079.5838,273.21366 3076.2579,270.31745 z"
         id="path3122"
         style="fill:#ffffff;fill-opacity:1;fill-rule:nonzero;stroke:none" />
      <path
         d="M 2998.6428,267.89993 C 2990.2292,258.42063 2983.4914,247.55768 2978.8764,235.63765 C 2971.0643,238.52527 2963.4671,241.93713 2956.1621,245.90761 C 2964.3265,259.45192 2975.602,270.58129 2988.8799,278.55662 C 2991.7331,274.57755 2995.0247,271.01959 2998.6428,267.89993 z"
         id="path3126"
         style="fill:#ffffff;fill-opacity:1;fill-rule:nonzero;stroke:none" />
      <path
         d="M 2991.7357,280.17059 C 3003.1315,286.47007 3015.8765,290.53508 3029.3521,291.79842 C 3018.5751,286.14349 3008.9411,278.91585 3000.8712,270.32174 C 2997.5109,273.24374 2994.4257,276.51809 2991.7357,280.17059 z"
         id="path3130"
         style="fill:#ffffff;fill-opacity:1;fill-rule:nonzero;stroke:none" />
      <path
         d="M 3076.1238,121.96854 C 3079.5357,119.02076 3082.6467,115.72062 3085.3711,111.97359 C 3074.0182,105.61395 3061.2302,101.49738 3047.5312,100.25123 C 3058.3684,105.88896 3067.968,113.2713 3076.1238,121.96854 z"
         id="path3134"
         style="fill:#ffffff;fill-opacity:1;fill-rule:nonzero;stroke:none" />
      <path
         d="M 3036.8548,138.9462 C 3030.5553,138.77432 3024.4363,137.6313 3018.515,135.55153 C 3014.6304,144.97067 3011.717,154.66482 3009.706,164.58242 C 3018.6439,166.0778 3027.7193,166.93721 3036.8548,167.02315 L 3036.8548,138.9462 z"
         id="path3138"
         style="fill:#ffffff;fill-opacity:1;fill-rule:nonzero;stroke:none" />
      <path
         d="M 3060.4044,131.50198 C 3065.1054,129.62846 3069.5056,127.0932 3073.5448,124.04229 C 3065.1741,115.17318 3055.2479,107.7049 3044.024,102.10154 L 3043.9037,102.3078 C 3050.4438,111.52927 3055.9527,121.29218 3060.4044,131.50198 z"
         id="path3142"
         style="fill:#ffffff;fill-opacity:1;fill-rule:nonzero;stroke:none" />
      <path
         d="M 3036.8548,253.12923 L 3036.8548,224.96634 C 3027.7107,225.06087 3018.6181,225.92029 3009.663,227.44144 C 3011.6569,237.40201 3014.5789,247.14773 3018.4376,256.48953 C 3024.2988,254.46991 3030.4952,253.30971 3036.8548,253.12923 z"
         id="path3146"
         style="fill:#ffffff;fill-opacity:1;fill-rule:nonzero;stroke:none" />
      <path
         d="M 3019.7164,259.52411 C 3024.2713,270.00033 3029.9864,279.9609 3036.8531,289.38004 L 3036.8531,256.43023 C 3030.9231,256.58493 3025.1651,257.66778 3019.7164,259.52411 z"
         id="path3150"
         style="fill:#ffffff;fill-opacity:1;fill-rule:nonzero;stroke:none" />
      <path
         d="M 3040.1274,289.46082 C 3047.0457,280.0073 3052.735,269.99517 3057.3328,259.50176 C 3051.8755,257.61106 3046.0659,256.57976 3040.1274,256.41648 L 3040.1274,289.46082 z"
         id="path3154"
         style="fill:#ffffff;fill-opacity:1;fill-rule:nonzero;stroke:none" />
      <path
         d="M 3061.7304,257.61106 C 3066.7837,259.65646 3071.5363,262.42376 3075.8935,265.80124 C 3084.0923,256.58836 3090.6152,246.00042 3095.1185,234.44994 C 3087.126,231.71701 3078.9444,229.49973 3070.6425,227.92701 C 3068.6315,238.13681 3065.6235,248.03722 3061.7304,257.61106 z"
         id="path3158"
         style="fill:#ffffff;fill-opacity:1;fill-rule:nonzero;stroke:none" />
      <path
         d="M 3043.6355,290.26695 C 3055.1086,284.62062 3065.1981,277.14375 3073.6633,268.21447 C 3069.5897,265.1034 3065.138,262.55095 3060.4456,260.62587 C 3055.9165,270.96458 3050.3131,280.865 3043.6355,290.26695 z"
         id="path3162"
         style="fill:#ffffff;fill-opacity:1;fill-rule:nonzero;stroke:none" />
      <path
         d="M 3067.9414,167.80865 C 3058.7973,169.38137 3049.4899,170.23219 3040.1309,170.33532 L 3040.1309,194.39023 L 3070.4251,194.39023 C 3070.3478,185.37501 3069.5055,176.53167 3067.9414,167.80865 z"
         id="path3166"
         style="fill:#ffffff;fill-opacity:1;fill-rule:nonzero;stroke:none" />
      <path
         d="M 3071.2312,224.68617 C 3079.7394,226.30186 3088.0499,228.53633 3096.2057,231.33801 C 3099.9785,220.76726 3102.0669,209.43163 3102.2473,197.67489 L 3073.7149,197.67489 C 3073.629,206.8448 3072.8039,215.84283 3071.2312,224.68617 z"
         id="path3170"
         style="fill:#ffffff;fill-opacity:1;fill-rule:nonzero;stroke:none" />
      <path
         d="M 3070.4251,197.67833 L 3040.1309,197.67833 L 3040.1309,221.68167 C 3049.5156,221.75043 3058.8145,222.62702 3067.993,224.18256 C 3069.5313,215.50251 3070.3478,206.68495 3070.4251,197.67833 z"
         id="path3174"
         style="fill:#ffffff;fill-opacity:1;fill-rule:nonzero;stroke:none" />
      <path
         d="M 3040.1274,253.11204 C 3046.5128,253.29252 3052.735,254.41834 3058.6305,256.46374 C 3062.4549,247.08757 3065.4199,237.36763 3067.4051,227.40706 C 3058.4071,225.9031 3049.2801,225.0265 3040.1274,224.96634 L 3040.1274,253.11204 z"
         id="path3178"
         style="fill:#ffffff;fill-opacity:1;fill-rule:nonzero;stroke:none" />
      <path
         d="M 3036.8548,221.69886 L 3036.8548,197.67833 L 3006.6035,197.67833 C 3006.7067,206.69355 3007.5317,215.53688 3009.0615,224.19975 C 3018.197,222.63562 3027.4872,221.7848 3036.8548,221.69886 z"
         id="path3182"
         style="fill:#ffffff;fill-opacity:1;fill-rule:nonzero;stroke:none" />
      <path
         d="M 3015.3695,257.6695 C 3011.4248,248.09566 3008.4341,238.18666 3006.423,227.96826 C 2998.1211,229.54099 2989.9309,231.74967 2981.9384,234.50838 C 2986.4675,246.02448 2992.9647,256.61242 3001.2064,265.82531 C 3005.555,262.46501 3010.2646,259.7063 3015.3695,257.6695 z"
         id="path3186"
         style="fill:#ffffff;fill-opacity:1;fill-rule:nonzero;stroke:none" />
      <path
         d="M 3003.41,268.25228 C 3011.8924,277.15578 3021.9475,284.61546 3033.412,290.2446 C 3026.743,280.9114 3021.1139,271.01958 3016.6363,260.66368 C 3011.9268,262.60595 3007.4922,265.1584 3003.41,268.25228 z"
         id="path3190"
         style="fill:#ffffff;fill-opacity:1;fill-rule:nonzero;stroke:none" />
      <path
         d="M 3073.7149,194.38851 L 3102.2473,194.38851 C 3102.0669,182.72631 3099.9183,171.34771 3096.0768,160.67383 C 3087.9725,163.46691 3079.6706,165.70997 3071.1882,167.29129 C 3072.7695,176.16041 3073.6118,185.25297 3073.7149,194.38851 z"
         id="path3194"
         style="fill:#ffffff;fill-opacity:1;fill-rule:nonzero;stroke:none" />
      <path
         d="M 3094.9149,157.59541 C 3090.3858,146.19962 3083.8801,135.68044 3075.7758,126.45896 C 3071.453,129.77628 3066.7004,132.49202 3061.6901,134.52882 C 3065.5918,144.0511 3068.5911,153.89994 3070.6108,164.06677 C 3078.8353,162.49405 3086.9739,160.36271 3094.9149,157.59541 z"
         id="path3198"
         style="fill:#ffffff;fill-opacity:1;fill-rule:nonzero;stroke:none" />
      <path
         d="M 3036.8548,170.33532 C 3027.5216,170.23219 3018.2572,169.38137 3009.1216,167.85162 C 3007.5661,176.54886 3006.7067,185.37501 3006.6035,194.39023 L 3036.8548,194.39023 L 3036.8548,170.33532 z"
         id="path3202"
         style="fill:#ffffff;fill-opacity:1;fill-rule:nonzero;stroke:none" />
      <path
         d="M 3058.6331,135.68216 C 3052.7289,137.70178 3046.5154,138.8276 3040.13,138.99089 L 3040.13,167.03346 C 3049.2827,166.93893 3058.4097,166.07952 3067.3647,164.58414 C 3065.3623,154.66654 3062.4489,144.98958 3058.6331,135.68216 z"
         id="path3206"
         style="fill:#ffffff;fill-opacity:1;fill-rule:nonzero;stroke:none" />
      <path
         d="M 3099.2875,232.49994 C 3107.2542,235.42194 3115.0233,238.95411 3122.4916,242.99335 C 3130.063,229.53497 3134.4718,214.12574 3134.764,197.67662 L 3105.5268,197.67662 C 3105.3549,209.8115 3103.172,221.54245 3099.2875,232.49994 z"
         id="path3210"
         style="fill:#ffffff;fill-opacity:1;fill-rule:nonzero;stroke:none" />
      <path
         d="M 3043.4594,98.124188 C 3043.4594,98.124188 3043.4766,98.14997 3043.5024,98.158564"
         id="path3218"
         style="fill:#008240;fill-opacity:1;fill-rule:nonzero;stroke:none" />
      <path
         d="M 3050.1481,94.25598 L 3082.8315,52.471428 L 3050.1481,94.25598 L 3050.1997,94.25598 C 3101.5323,100.07419 3140.9792,143.74085 3140.9792,196.036 C 3140.9792,252.52507 3095.0179,298.49495 3038.5117,298.49495 C 2995.2919,298.49495 2957.4521,271.89619 2942.5671,231.79608 L 2942.5671,231.77889 L 2856.2994,341.95535 L 3116.2024,341.95535 L 3217.7246,50.503378 L 3078.1133,50.503378 L 2850.0859,341.95535 L 2856.2994,341.95535 L 2942.5671,231.77889"
         id="path3222"
         style="fill:#008240;fill-opacity:1;fill-rule:nonzero;stroke:none" />
      <path
         d="M 3050.1989,94.25598 L 3047.9129,97.152194 L 3046.0995,99.472603 L 3045.6526,100.07419 L 3044.0197,102.1024 C 3055.2522,107.70576 3065.1698,115.17404 3073.5491,124.04316 C 3069.5013,127.09407 3065.1011,129.62933 3060.4087,131.50284 C 3055.957,121.29304 3050.4395,111.53014 3043.908,102.30866 L 3041.7853,104.98143 C 3047.9129,113.73882 3053.1123,123.02046 3057.2976,132.67164 C 3051.8404,134.51937 3046.0737,135.55926 3040.1266,135.67958 L 3040.1266,107.07839 L 3036.8523,111.28091 L 3036.8523,135.61942 C 3031.1286,135.49051 3025.5338,134.4764 3020.1195,132.63726 C 3020.0422,132.59429 3018.0054,135.38738 3018.0054,135.38738 L 3012.3504,142.59784 C 3009.8925,149.61063 3007.9417,156.77811 3006.4807,164.06592 C 3003.3352,163.47292 3000.2328,162.75961 2997.1647,161.99474 L 2994.9216,164.86517 C 2998.5655,165.78474 3002.175,166.59258 3005.8705,167.28871 C 3004.2634,176.15783 3003.4126,185.2418 3003.318,194.38593 L 2974.8028,194.38593 L 2974.9145,190.41545 L 2969.2424,197.67747 L 2971.5198,197.67747 C 2971.6917,209.82954 2973.8746,221.5605 2977.7678,232.52658 C 2969.801,235.50014 2962.0405,238.98935 2954.5637,243.04577 C 2951.5643,237.69164 2949.0548,232.01093 2947.0954,225.99506 L 2944.8265,228.90846 L 2942.5749,231.79608 C 2957.4513,271.89619 2995.2911,298.49495 3038.5195,298.49495 C 3095.0172,298.49495 3140.9785,252.52507 3140.9785,196.036 C 3140.9785,143.74085 3101.5401,100.07419 3050.1989,94.25598 M 3134.7649,194.38593 L 3105.5278,194.38593 C 3105.3559,182.3284 3103.13,170.54587 3099.1509,159.54542 C 3107.1692,156.59764 3114.9727,153.03968 3122.4925,148.96607 C 3130.0639,162.47601 3134.4727,177.98837 3134.7649,194.38593 M 3006.6096,197.67747 L 3036.8523,197.67747 L 3036.8523,221.698 C 3027.4847,221.78394 3018.1944,222.63476 3009.0589,224.19889 C 3007.5292,215.53603 3006.7041,206.69269 3006.6096,197.67747 M 3040.1266,170.33962 C 3049.4856,170.23649 3058.793,169.37708 3067.9371,167.81295 C 3069.5013,176.52737 3070.3521,185.3793 3070.4294,194.38593 L 3040.1266,194.38593 L 3040.1266,170.33962 M 3070.4294,197.67747 C 3070.3521,206.6841 3069.527,215.50165 3067.9887,224.1817 C 3058.8188,222.63476 3049.52,221.74957 3040.1266,221.68081 L 3040.1266,197.67747 L 3070.4294,197.67747 M 3009.6605,227.43887 C 3018.6156,225.91771 3027.7081,225.06689 3036.8523,224.96376 L 3036.8523,253.12665 C 3030.4926,253.31573 3024.2963,254.47593 3018.4437,256.48695 C 3014.5763,247.14516 3011.6629,237.39944 3009.6605,227.43887 M 3015.367,257.67294 C 3010.2707,259.70974 3005.5611,262.45986 3001.2039,265.82875 C 2992.9621,256.61586 2986.465,246.01933 2981.9445,234.50322 C 2989.9284,231.75311 2998.1186,229.53583 3006.4205,227.9717 C 3008.4401,238.1901 3011.4223,248.09051 3015.367,257.67294 M 3040.1266,224.96376 C 3049.2879,225.03252 3058.4063,225.90052 3067.4043,227.40449 C 3065.4191,237.36506 3062.4541,247.085 3058.6297,256.46117 C 3052.7342,254.42437 3046.512,253.28994 3040.1266,253.10947 L 3040.1266,224.96376 M 3070.6443,227.92873 C 3078.9462,229.50145 3087.1278,231.71873 3095.1203,234.45166 C 3090.617,246.00214 3084.0855,256.59008 3075.8953,265.80296 C 3071.5295,262.41689 3066.7855,259.65818 3061.7322,257.61278 C 3065.6253,248.03894 3068.6333,238.13853 3070.6443,227.92873 M 3071.2287,224.68875 C 3072.8014,215.83682 3073.635,206.84738 3073.7124,197.67747 L 3102.2534,197.67747 C 3102.0643,209.42562 3099.976,220.76984 3096.2118,231.34059 C 3088.0474,228.53891 3079.7454,226.29585 3071.2287,224.68875 M 3073.7124,194.38593 C 3073.6178,185.25039 3072.767,176.15783 3071.1857,167.28871 C 3079.6767,165.70739 3087.9786,163.47292 3096.0742,160.67984 C 3099.9158,171.35372 3102.0643,182.72372 3102.2534,194.38593 L 3073.7124,194.38593 M 3120.8511,146.1472 C 3113.4258,150.14346 3105.8114,153.5897 3097.9735,156.46013 C 3093.3413,144.74636 3086.6551,133.86622 3078.3102,124.40411 C 3082.0143,121.24148 3085.3488,117.66633 3088.2536,113.6271 C 3101.5917,121.68837 3112.7554,132.89509 3120.8511,146.1472 M 3047.5261,100.24607 C 3061.2251,101.50081 3074.0132,105.6088 3085.3746,111.97703 C 3082.6417,115.72406 3079.5392,119.0242 3076.1273,121.97198 C 3067.9629,113.27474 3058.3633,105.8924 3047.5261,100.24607 M 3075.7836,126.4581 C 3083.8792,135.67958 3090.3849,146.19877 3094.914,157.59455 C 3086.9731,160.36186 3078.8345,162.4932 3070.6099,164.06592 C 3068.5989,153.89909 3065.5909,144.05024 3061.6892,134.53656 C 3066.6996,132.49117 3071.4521,129.77543 3075.7836,126.4581 M 3058.6297,135.67958 C 3062.4541,144.987 3065.3675,154.66396 3067.3613,164.59016 C 3058.4063,166.07694 3049.2879,166.93635 3040.1266,167.03948 L 3040.1266,138.98831 C 3046.512,138.83362 3052.7342,137.70779 3058.6297,135.67958 M 3018.5124,135.55926 C 3024.4338,137.63044 3030.5528,138.78205 3036.8523,138.94534 L 3036.8523,167.02229 C 3027.7167,166.93635 3018.6413,166.07694 3009.7035,164.59016 C 3011.7145,154.66396 3014.6279,144.96981 3018.5124,135.55926 M 3009.1277,167.84732 C 3018.2546,169.37708 3027.519,170.23649 3036.8523,170.33962 L 3036.8523,194.38593 L 3006.6096,194.38593 C 3006.7041,185.3793 3007.5635,176.54456 3009.1277,167.84732 M 2974.8028,197.67747 L 3003.318,197.67747 C 3003.3868,206.86457 3004.229,215.88839 3005.8275,224.74891 C 2997.3279,226.34742 2989.0089,228.58188 2980.896,231.41794 C 2977.0888,220.77843 2974.9489,209.44281 2974.8028,197.67747 M 2978.8764,235.63765 C 2983.4914,247.55767 2990.2206,258.42922 2998.6428,267.89993 C 2995.0247,271.01959 2991.7332,274.57755 2988.8799,278.55662 C 2975.602,270.58129 2964.3266,259.45192 2956.1622,245.9076 C 2963.4672,241.93713 2971.0644,238.52527 2978.8764,235.63765 M 2991.7332,280.17231 C 2994.4317,276.51982 2997.5084,273.24546 3000.8687,270.32346 C 3008.9386,278.90898 3018.5726,286.14522 3029.3496,291.79155 C 3015.874,290.53681 3003.129,286.47179 2991.7332,280.17231 M 3003.4126,268.25228 C 3007.4862,265.15841 3011.9293,262.60596 3016.6389,260.66369 C 3021.1078,271.01959 3026.7456,280.91141 3033.4146,290.24461 C 3021.9501,284.61547 3011.895,277.15578 3003.4126,268.25228 M 3036.8523,289.3766 C 3029.9856,279.95746 3024.2705,269.99689 3019.7156,259.52067 C 3025.1643,257.67294 3030.9223,256.59008 3036.8523,256.42679 L 3036.8523,289.3766 M 3040.1266,256.4182 C 3046.0737,256.58149 3051.8748,257.61278 3057.332,259.50348 C 3052.7342,269.99689 3047.0449,280.00902 3040.1266,289.46254 L 3040.1266,256.4182 M 3060.4431,260.62072 C 3065.1355,262.55439 3069.5872,265.10684 3073.6608,268.20931 C 3065.1956,277.13859 3055.1061,284.61547 3043.633,290.27039 C 3050.3192,280.86843 3055.914,270.96802 3060.4431,260.62072 M 3047.6636,291.82592 C 3058.4836,286.17959 3068.1004,278.90898 3076.2562,270.31487 C 3079.5822,273.21108 3082.6417,276.45106 3085.3402,280.09496 C 3073.953,286.42882 3061.2251,290.56259 3047.6636,291.82592 M 3088.1505,278.46208 C 3085.3402,274.51739 3082.0229,270.95083 3078.4219,267.86555 C 3086.8614,258.36047 3093.5905,247.48033 3098.2228,235.58608 C 3105.9918,238.4737 3113.5633,241.87697 3120.8854,245.83885 C 3112.7554,259.17691 3101.5057,270.40081 3088.1505,278.46208 M 3122.4925,242.9942 C 3115.0243,238.95497 3107.2552,235.42279 3099.2884,232.5008 C 3103.173,221.54331 3105.3559,209.81235 3105.5278,197.67747 L 3134.7649,197.67747 C 3134.4727,214.12659 3130.0639,229.53583 3122.4925,242.9942 z"
         id="path3226"
         style="fill:#ff6600;fill-opacity:1;fill-rule:nonzero;stroke:none" />
      <path
         d="M 3048.5368,218.9539 L 3072.7636,230.10905 L 3061.3076,205.54709 L 3092.53,197.88115 L 3092.53,194.19428 L 3061.3076,186.39083 L 3073.2019,161.339 L 3048.4165,172.97542 L 3040.6474,128.53529 L 3036.2988,128.53529 L 3028.6758,172.94105 L 3003.942,161.339 L 3015.6042,186.48536 L 2984.4505,194.19428 L 2984.4505,197.83818 L 3015.6042,205.3838 L 3004.2943,230.16921 L 3028.6328,219.10859 L 3036.2128,263.53154 L 3040.4927,263.48857 L 3048.5368,218.9539 z"
         id="path3230"
         style="fill:#ffffff;fill-opacity:1;fill-rule:nonzero;stroke:none" />
      <path
         d="M 3038.6002,130.99837 L 3046.6787,176.40104 L 3068.4132,166.09671 L 3058.1432,187.84839 L 3090.7578,196.01279 L 3058.1432,204.11704 L 3068.0694,225.40464 L 3046.6787,215.66752 L 3038.3939,260.6233 L 3030.3842,215.66752 L 3009.0451,225.43043 L 3018.8767,204.11704 L 2986.3394,196.01279 L 3018.8767,187.84839 L 3008.7185,166.09671 L 3030.3842,176.3151 L 3038.6002,130.99837 z"
         id="path3234"
         style="fill:#008240;fill-opacity:1;fill-rule:nonzero;stroke:none" />
    </g>
  </g>
</svg>
